<mxfile host="app.diagrams.net" modified="2023-06-29T04:50:37.845Z" agent="Mozilla/5.0 (Windows NT 10.0; WOW64) AppleWebKit/537.36 (KHTML, like Gecko) Chrome/94.0.4606.71 Safari/537.36 Core/1.94.200.400 QQBrowser/11.8.5310.400" etag="JH2zoJh534ZT_FxgvGWl" version="21.5.2" type="device">
  <diagram name="第 1 页" id="Wgv6sDrsY91i0UOK3lBt">
    <mxGraphModel dx="2474" dy="1137" grid="0" gridSize="10" guides="1" tooltips="1" connect="1" arrows="1" fold="1" page="0" pageScale="1" pageWidth="827" pageHeight="1169" math="0" shadow="0">
      <root>
        <mxCell id="0" />
        <mxCell id="1" parent="0" />
        <mxCell id="UWleOFiBuXG3q4wPXzOo-1" value="底层类型&lt;br style=&quot;font-size: 13px;&quot;&gt;UnsafeCell&amp;lt;T&amp;gt;" style="rounded=0;whiteSpace=wrap;html=1;fillColor=#a0522d;fontColor=#ffffff;strokeColor=#6D1F00;fontSize=13;fontStyle=1" parent="1" vertex="1">
          <mxGeometry x="-20" y="430" width="120" height="60" as="geometry" />
        </mxCell>
        <mxCell id="UWleOFiBuXG3q4wPXzOo-2" value="new(T),&amp;nbsp; &amp;nbsp;from(T),&amp;nbsp; UnsafeCell::&amp;lt;T&amp;gt;::default()" style="rounded=0;whiteSpace=wrap;html=1;fontSize=13;" parent="1" vertex="1">
          <mxGeometry x="200" y="400" width="340" height="40" as="geometry" />
        </mxCell>
        <mxCell id="UWleOFiBuXG3q4wPXzOo-4" value="get() -&amp;gt; *mut T" style="rounded=0;whiteSpace=wrap;html=1;fontSize=13;" parent="1" vertex="1">
          <mxGeometry x="420" y="450" width="120" height="40" as="geometry" />
        </mxCell>
        <mxCell id="UWleOFiBuXG3q4wPXzOo-5" value="get_mut()-&amp;gt; &amp;amp;mut T" style="rounded=0;whiteSpace=wrap;html=1;fontSize=13;" parent="1" vertex="1">
          <mxGeometry x="420" y="489.99999999999994" width="120" height="40.58" as="geometry" />
        </mxCell>
        <mxCell id="UWleOFiBuXG3q4wPXzOo-6" value="&lt;font color=&quot;#ff0000&quot; style=&quot;font-size: 13px;&quot;&gt;unsafe &lt;/font&gt;{&lt;br style=&quot;font-size: 13px;&quot;&gt;&amp;nbsp; &amp;nbsp; &amp;nbsp;*(&amp;amp;*ptr) = value&lt;br style=&quot;font-size: 13px;&quot;&gt;}" style="rounded=0;whiteSpace=wrap;html=1;align=left;spacingLeft=5;fillColor=#f8cecc;strokeColor=#b85450;fontSize=13;" parent="1" vertex="1">
          <mxGeometry x="640" y="450" width="120" height="40" as="geometry" />
        </mxCell>
        <mxCell id="UWleOFiBuXG3q4wPXzOo-7" value="*&amp;nbsp;ref = value" style="rounded=0;whiteSpace=wrap;html=1;align=left;spacingLeft=5;fillColor=#d5e8d4;strokeColor=#82b366;fontSize=13;" parent="1" vertex="1">
          <mxGeometry x="640" y="489.99999999999994" width="120" height="40.58" as="geometry" />
        </mxCell>
        <mxCell id="UWleOFiBuXG3q4wPXzOo-8" value="REF" style="endArrow=classic;html=1;rounded=0;entryX=0;entryY=0.5;entryDx=0;entryDy=0;exitX=1;exitY=0.5;exitDx=0;exitDy=0;fontSize=13;" parent="1" source="UWleOFiBuXG3q4wPXzOo-5" target="UWleOFiBuXG3q4wPXzOo-7" edge="1">
          <mxGeometry width="50" height="50" relative="1" as="geometry">
            <mxPoint x="480" y="390" as="sourcePoint" />
            <mxPoint x="530" y="340" as="targetPoint" />
          </mxGeometry>
        </mxCell>
        <mxCell id="UWleOFiBuXG3q4wPXzOo-9" value="PTR" style="endArrow=classic;html=1;rounded=0;entryX=0;entryY=0.5;entryDx=0;entryDy=0;fontSize=13;" parent="1" source="UWleOFiBuXG3q4wPXzOo-4" target="UWleOFiBuXG3q4wPXzOo-6" edge="1">
          <mxGeometry width="50" height="50" relative="1" as="geometry">
            <mxPoint x="550" y="575" as="sourcePoint" />
            <mxPoint x="650" y="575" as="targetPoint" />
          </mxGeometry>
        </mxCell>
        <mxCell id="UWleOFiBuXG3q4wPXzOo-10" value="&amp;amp;UnsafeCell&amp;lt;T&amp;gt;" style="rounded=0;whiteSpace=wrap;html=1;fontSize=13;" parent="1" vertex="1">
          <mxGeometry x="200" y="450" width="120" height="40" as="geometry" />
        </mxCell>
        <mxCell id="UWleOFiBuXG3q4wPXzOo-11" value="&lt;b style=&quot;font-size: 13px;&quot;&gt;&lt;font color=&quot;#ff0000&quot; style=&quot;font-size: 13px;&quot;&gt;&amp;amp;mut&lt;/font&gt;&lt;font color=&quot;#009900&quot; style=&quot;font-size: 13px;&quot;&gt; &lt;/font&gt;&lt;/b&gt;UnsafeCell&amp;lt;T&amp;gt;" style="rounded=0;whiteSpace=wrap;html=1;fontSize=13;" parent="1" vertex="1">
          <mxGeometry x="200" y="489.99999999999994" width="120" height="40.58" as="geometry" />
        </mxCell>
        <mxCell id="UWleOFiBuXG3q4wPXzOo-12" value="非安全更改" style="endArrow=classic;html=1;rounded=0;exitX=1;exitY=0.5;exitDx=0;exitDy=0;fontSize=13;" parent="1" source="UWleOFiBuXG3q4wPXzOo-10" target="UWleOFiBuXG3q4wPXzOo-4" edge="1">
          <mxGeometry width="50" height="50" relative="1" as="geometry">
            <mxPoint x="420" y="435" as="sourcePoint" />
            <mxPoint x="470" y="385" as="targetPoint" />
          </mxGeometry>
        </mxCell>
        <mxCell id="UWleOFiBuXG3q4wPXzOo-14" value="" style="endArrow=classic;html=1;rounded=0;exitX=1;exitY=0.5;exitDx=0;exitDy=0;fontSize=13;" parent="1" source="UWleOFiBuXG3q4wPXzOo-11" target="UWleOFiBuXG3q4wPXzOo-5" edge="1">
          <mxGeometry width="50" height="50" relative="1" as="geometry">
            <mxPoint x="420" y="390" as="sourcePoint" />
            <mxPoint x="470" y="340" as="targetPoint" />
          </mxGeometry>
        </mxCell>
        <mxCell id="UWleOFiBuXG3q4wPXzOo-17" value="安全更改" style="edgeLabel;html=1;align=center;verticalAlign=middle;resizable=0;points=[];fontSize=13;" parent="UWleOFiBuXG3q4wPXzOo-14" vertex="1" connectable="0">
          <mxGeometry x="0.06" y="1" relative="1" as="geometry">
            <mxPoint as="offset" />
          </mxGeometry>
        </mxCell>
        <mxCell id="UWleOFiBuXG3q4wPXzOo-15" value="" style="endArrow=none;dashed=1;html=1;dashPattern=1 3;strokeWidth=2;rounded=0;entryX=1;entryY=0.5;entryDx=0;entryDy=0;exitX=0;exitY=0;exitDx=0;exitDy=0;fontSize=13;" parent="1" source="UWleOFiBuXG3q4wPXzOo-11" target="UWleOFiBuXG3q4wPXzOo-1" edge="1">
          <mxGeometry width="50" height="50" relative="1" as="geometry">
            <mxPoint x="380" y="490" as="sourcePoint" />
            <mxPoint x="430" y="440" as="targetPoint" />
          </mxGeometry>
        </mxCell>
        <mxCell id="UWleOFiBuXG3q4wPXzOo-41" value="指针与引用" style="edgeLabel;html=1;align=center;verticalAlign=middle;resizable=0;points=[];fontSize=13;" parent="UWleOFiBuXG3q4wPXzOo-15" vertex="1" connectable="0">
          <mxGeometry x="0.0462" y="-5" relative="1" as="geometry">
            <mxPoint as="offset" />
          </mxGeometry>
        </mxCell>
        <mxCell id="UWleOFiBuXG3q4wPXzOo-22" value="创建" style="endArrow=none;dashed=1;html=1;dashPattern=1 3;strokeWidth=2;rounded=0;exitX=1;exitY=0.5;exitDx=0;exitDy=0;entryX=0;entryY=0.5;entryDx=0;entryDy=0;fontSize=13;" parent="1" source="UWleOFiBuXG3q4wPXzOo-1" target="UWleOFiBuXG3q4wPXzOo-2" edge="1">
          <mxGeometry width="50" height="50" relative="1" as="geometry">
            <mxPoint x="380" y="590" as="sourcePoint" />
            <mxPoint x="430" y="540" as="targetPoint" />
          </mxGeometry>
        </mxCell>
        <mxCell id="UWleOFiBuXG3q4wPXzOo-24" value="Cell&amp;lt;T&amp;gt;&lt;br style=&quot;font-size: 13px;&quot;&gt;资源不敏感型场景" style="rounded=0;whiteSpace=wrap;html=1;fillColor=#f5f5f5;fontColor=#333333;strokeColor=#666666;fontSize=13;" parent="1" vertex="1">
          <mxGeometry x="-20" y="260" width="120" height="60" as="geometry" />
        </mxCell>
        <mxCell id="UWleOFiBuXG3q4wPXzOo-28" value="RefCell&amp;lt;T&amp;gt;&lt;br style=&quot;font-size: 13px;&quot;&gt;资源敏感型场景" style="rounded=0;whiteSpace=wrap;html=1;fillColor=#f5f5f5;fontColor=#333333;strokeColor=#666666;fontSize=13;" parent="1" vertex="1">
          <mxGeometry x="-20" y="661" width="120" height="60" as="geometry" />
        </mxCell>
        <mxCell id="UWleOFiBuXG3q4wPXzOo-31" value="new(T),&amp;nbsp; &amp;nbsp;from(T),&amp;nbsp; Cell::&amp;lt;T&amp;gt;::default()" style="rounded=0;whiteSpace=wrap;html=1;fontSize=13;" parent="1" vertex="1">
          <mxGeometry x="200" y="200" width="340" height="40" as="geometry" />
        </mxCell>
        <mxCell id="UWleOFiBuXG3q4wPXzOo-33" value="复制 -&amp;gt; 修改 -&amp;gt; 写回: set(x), replace, swap, take" style="rounded=0;whiteSpace=wrap;html=1;fillColor=#d5e8d4;strokeColor=#82b366;fontSize=13;" parent="1" vertex="1">
          <mxGeometry x="200" y="250" width="340" height="40" as="geometry" />
        </mxCell>
        <mxCell id="UWleOFiBuXG3q4wPXzOo-34" value="get_mut() -&amp;gt; &amp;amp;mut T" style="rounded=0;whiteSpace=wrap;html=1;fontSize=13;" parent="1" vertex="1">
          <mxGeometry x="200" y="300" width="120" height="40" as="geometry" />
        </mxCell>
        <mxCell id="UWleOFiBuXG3q4wPXzOo-35" value="* ref = value" style="rounded=0;whiteSpace=wrap;html=1;fillColor=#d5e8d4;strokeColor=#82b366;fontSize=13;" parent="1" vertex="1">
          <mxGeometry x="640" y="300" width="120" height="40" as="geometry" />
        </mxCell>
        <mxCell id="UWleOFiBuXG3q4wPXzOo-38" value="" style="endArrow=classic;html=1;rounded=0;exitX=1;exitY=0.5;exitDx=0;exitDy=0;entryX=0;entryY=0.5;entryDx=0;entryDy=0;fontSize=13;" parent="1" source="UWleOFiBuXG3q4wPXzOo-34" target="UWleOFiBuXG3q4wPXzOo-35" edge="1">
          <mxGeometry width="50" height="50" relative="1" as="geometry">
            <mxPoint x="410" y="540" as="sourcePoint" />
            <mxPoint x="460" y="490" as="targetPoint" />
          </mxGeometry>
        </mxCell>
        <mxCell id="UWleOFiBuXG3q4wPXzOo-50" value="安全更改" style="edgeLabel;html=1;align=center;verticalAlign=middle;resizable=0;points=[];fontSize=13;" parent="UWleOFiBuXG3q4wPXzOo-38" vertex="1" connectable="0">
          <mxGeometry x="0.0438" y="4" relative="1" as="geometry">
            <mxPoint as="offset" />
          </mxGeometry>
        </mxCell>
        <mxCell id="UWleOFiBuXG3q4wPXzOo-39" value="创建" style="endArrow=none;dashed=1;html=1;dashPattern=1 3;strokeWidth=2;rounded=0;exitX=1;exitY=0.5;exitDx=0;exitDy=0;entryX=0;entryY=0.5;entryDx=0;entryDy=0;fontSize=13;" parent="1" source="UWleOFiBuXG3q4wPXzOo-24" target="UWleOFiBuXG3q4wPXzOo-31" edge="1">
          <mxGeometry width="50" height="50" relative="1" as="geometry">
            <mxPoint x="120" y="515" as="sourcePoint" />
            <mxPoint x="170" y="440" as="targetPoint" />
          </mxGeometry>
        </mxCell>
        <mxCell id="UWleOFiBuXG3q4wPXzOo-43" value="" style="endArrow=none;dashed=1;html=1;dashPattern=1 3;strokeWidth=2;rounded=0;exitX=1;exitY=0.5;exitDx=0;exitDy=0;entryX=0;entryY=0.5;entryDx=0;entryDy=0;fontSize=13;" parent="1" source="UWleOFiBuXG3q4wPXzOo-24" target="UWleOFiBuXG3q4wPXzOo-33" edge="1">
          <mxGeometry width="50" height="50" relative="1" as="geometry">
            <mxPoint x="370" y="490" as="sourcePoint" />
            <mxPoint x="420" y="440" as="targetPoint" />
          </mxGeometry>
        </mxCell>
        <mxCell id="UWleOFiBuXG3q4wPXzOo-45" value="更改" style="edgeLabel;html=1;align=center;verticalAlign=middle;resizable=0;points=[];fontSize=13;" parent="UWleOFiBuXG3q4wPXzOo-43" vertex="1" connectable="0">
          <mxGeometry x="0.08" y="1" relative="1" as="geometry">
            <mxPoint as="offset" />
          </mxGeometry>
        </mxCell>
        <mxCell id="UWleOFiBuXG3q4wPXzOo-47" value="as_ptr() -&amp;gt; *mut T" style="rounded=0;whiteSpace=wrap;html=1;fontSize=13;" parent="1" vertex="1">
          <mxGeometry x="200" y="340" width="120" height="40" as="geometry" />
        </mxCell>
        <mxCell id="UWleOFiBuXG3q4wPXzOo-48" value="&lt;font color=&quot;#ff0000&quot; style=&quot;font-size: 13px;&quot;&gt;unsafe &lt;/font&gt;{&lt;br style=&quot;font-size: 13px;&quot;&gt;&amp;nbsp; &amp;nbsp; &amp;nbsp;*(&amp;amp;*ptr) = value&lt;br style=&quot;font-size: 13px;&quot;&gt;}" style="rounded=0;whiteSpace=wrap;html=1;align=left;spacingLeft=5;fillColor=#f8cecc;strokeColor=#b85450;fontSize=13;" parent="1" vertex="1">
          <mxGeometry x="640" y="340" width="120" height="40" as="geometry" />
        </mxCell>
        <mxCell id="UWleOFiBuXG3q4wPXzOo-49" value="" style="endArrow=classic;html=1;rounded=0;exitX=1;exitY=0.5;exitDx=0;exitDy=0;fontSize=13;" parent="1" source="UWleOFiBuXG3q4wPXzOo-47" target="UWleOFiBuXG3q4wPXzOo-48" edge="1">
          <mxGeometry width="50" height="50" relative="1" as="geometry">
            <mxPoint x="330" y="320" as="sourcePoint" />
            <mxPoint x="650" y="320" as="targetPoint" />
          </mxGeometry>
        </mxCell>
        <mxCell id="UWleOFiBuXG3q4wPXzOo-51" value="非安全更改" style="edgeLabel;html=1;align=center;verticalAlign=middle;resizable=0;points=[];fontSize=13;" parent="UWleOFiBuXG3q4wPXzOo-49" vertex="1" connectable="0">
          <mxGeometry x="0.0875" y="3" relative="1" as="geometry">
            <mxPoint as="offset" />
          </mxGeometry>
        </mxCell>
        <mxCell id="UWleOFiBuXG3q4wPXzOo-52" value="" style="endArrow=none;dashed=1;html=1;dashPattern=1 3;strokeWidth=2;rounded=0;exitX=1;exitY=0.5;exitDx=0;exitDy=0;entryX=0;entryY=0;entryDx=0;entryDy=0;fontSize=13;" parent="1" source="UWleOFiBuXG3q4wPXzOo-24" target="UWleOFiBuXG3q4wPXzOo-47" edge="1">
          <mxGeometry width="50" height="50" relative="1" as="geometry">
            <mxPoint x="120" y="310" as="sourcePoint" />
            <mxPoint x="170" y="350" as="targetPoint" />
          </mxGeometry>
        </mxCell>
        <mxCell id="UWleOFiBuXG3q4wPXzOo-53" value="指针与引用" style="edgeLabel;html=1;align=center;verticalAlign=middle;resizable=0;points=[];fontSize=13;" parent="UWleOFiBuXG3q4wPXzOo-52" vertex="1" connectable="0">
          <mxGeometry x="0.0488" y="1" relative="1" as="geometry">
            <mxPoint as="offset" />
          </mxGeometry>
        </mxCell>
        <mxCell id="UWleOFiBuXG3q4wPXzOo-54" value="as_ptr() -&amp;gt; *mut T" style="rounded=0;whiteSpace=wrap;html=1;fontSize=13;" parent="1" vertex="1">
          <mxGeometry x="200" y="690" width="120" height="40" as="geometry" />
        </mxCell>
        <mxCell id="UWleOFiBuXG3q4wPXzOo-55" value="&lt;font color=&quot;#ff0000&quot; style=&quot;font-size: 13px;&quot;&gt;unsafe &lt;/font&gt;{&lt;br style=&quot;font-size: 13px;&quot;&gt;&amp;nbsp; &amp;nbsp; &amp;nbsp;*(&amp;amp;*ptr) = value&lt;br style=&quot;font-size: 13px;&quot;&gt;}" style="rounded=0;whiteSpace=wrap;html=1;align=left;spacingLeft=5;fillColor=#f8cecc;strokeColor=#b85450;fontSize=13;" parent="1" vertex="1">
          <mxGeometry x="640" y="690" width="120" height="40" as="geometry" />
        </mxCell>
        <mxCell id="UWleOFiBuXG3q4wPXzOo-56" value="" style="endArrow=classic;html=1;rounded=0;exitX=1;exitY=0.5;exitDx=0;exitDy=0;fontSize=13;" parent="1" source="UWleOFiBuXG3q4wPXzOo-54" target="UWleOFiBuXG3q4wPXzOo-55" edge="1">
          <mxGeometry width="50" height="50" relative="1" as="geometry">
            <mxPoint x="330" y="230" as="sourcePoint" />
            <mxPoint x="650" y="230" as="targetPoint" />
          </mxGeometry>
        </mxCell>
        <mxCell id="UWleOFiBuXG3q4wPXzOo-57" value="非安全更改" style="edgeLabel;html=1;align=center;verticalAlign=middle;resizable=0;points=[];fontSize=13;" parent="UWleOFiBuXG3q4wPXzOo-56" vertex="1" connectable="0">
          <mxGeometry x="0.0875" y="3" relative="1" as="geometry">
            <mxPoint as="offset" />
          </mxGeometry>
        </mxCell>
        <mxCell id="UWleOFiBuXG3q4wPXzOo-58" value="get_mut() -&amp;gt; &amp;amp;mut T" style="rounded=0;whiteSpace=wrap;html=1;fontSize=13;" parent="1" vertex="1">
          <mxGeometry x="200" y="650" width="120" height="40" as="geometry" />
        </mxCell>
        <mxCell id="UWleOFiBuXG3q4wPXzOo-59" value="* ref = value" style="rounded=0;whiteSpace=wrap;html=1;fillColor=#d5e8d4;strokeColor=#82b366;fontSize=13;" parent="1" vertex="1">
          <mxGeometry x="640" y="650" width="120" height="40" as="geometry" />
        </mxCell>
        <mxCell id="UWleOFiBuXG3q4wPXzOo-60" value="" style="endArrow=classic;html=1;rounded=0;exitX=1;exitY=0.5;exitDx=0;exitDy=0;entryX=0;entryY=0.5;entryDx=0;entryDy=0;fontSize=13;" parent="1" source="UWleOFiBuXG3q4wPXzOo-58" target="UWleOFiBuXG3q4wPXzOo-59" edge="1">
          <mxGeometry width="50" height="50" relative="1" as="geometry">
            <mxPoint x="410" y="890" as="sourcePoint" />
            <mxPoint x="460" y="840" as="targetPoint" />
          </mxGeometry>
        </mxCell>
        <mxCell id="UWleOFiBuXG3q4wPXzOo-61" value="安全更改" style="edgeLabel;html=1;align=center;verticalAlign=middle;resizable=0;points=[];fontSize=13;" parent="UWleOFiBuXG3q4wPXzOo-60" vertex="1" connectable="0">
          <mxGeometry x="0.0438" y="4" relative="1" as="geometry">
            <mxPoint as="offset" />
          </mxGeometry>
        </mxCell>
        <mxCell id="UWleOFiBuXG3q4wPXzOo-62" value="new(T),&amp;nbsp; &amp;nbsp;from(T),&amp;nbsp; Cell::&amp;lt;T&amp;gt;::default()" style="rounded=0;whiteSpace=wrap;html=1;fontSize=13;" parent="1" vertex="1">
          <mxGeometry x="200" y="550" width="340" height="40" as="geometry" />
        </mxCell>
        <mxCell id="UWleOFiBuXG3q4wPXzOo-63" value="复制 -&amp;gt; 修改 -&amp;gt; 写回:&amp;nbsp;set(x), replace, swap, take" style="rounded=0;whiteSpace=wrap;html=1;fillColor=#d5e8d4;strokeColor=#82b366;fontSize=13;" parent="1" vertex="1">
          <mxGeometry x="200" y="600" width="340" height="40" as="geometry" />
        </mxCell>
        <mxCell id="UWleOFiBuXG3q4wPXzOo-64" value="borrow()-&amp;gt; &lt;b style=&quot;font-size: 13px;&quot;&gt;&lt;font color=&quot;#ff0000&quot; style=&quot;font-size: 13px;&quot;&gt;Ref&amp;lt;T&amp;gt;&lt;/font&gt;&lt;/b&gt;" style="rounded=0;whiteSpace=wrap;html=1;fillColor=#e1d5e7;strokeColor=#9673a6;fontSize=13;" parent="1" vertex="1">
          <mxGeometry x="200" y="740" width="120" height="40" as="geometry" />
        </mxCell>
        <mxCell id="UWleOFiBuXG3q4wPXzOo-65" value="borrow_mut()-&amp;gt;&lt;br style=&quot;font-size: 13px;&quot;&gt;&amp;nbsp;&lt;b style=&quot;font-size: 13px;&quot;&gt;&lt;font color=&quot;#ff0000&quot; style=&quot;font-size: 13px;&quot;&gt;RefMut&amp;lt;T&amp;gt;&lt;/font&gt;&lt;/b&gt;" style="rounded=0;whiteSpace=wrap;html=1;fillColor=#e1d5e7;strokeColor=#9673a6;fontSize=13;" parent="1" vertex="1">
          <mxGeometry x="200" y="780" width="120" height="40" as="geometry" />
        </mxCell>
        <mxCell id="UWleOFiBuXG3q4wPXzOo-66" value="* ref = value" style="rounded=0;whiteSpace=wrap;html=1;fillColor=#d5e8d4;strokeColor=#82b366;fontSize=13;" parent="1" vertex="1">
          <mxGeometry x="640" y="780" width="120" height="40" as="geometry" />
        </mxCell>
        <mxCell id="UWleOFiBuXG3q4wPXzOo-67" value="" style="endArrow=classic;html=1;rounded=0;exitX=1;exitY=0.5;exitDx=0;exitDy=0;entryX=0;entryY=0.5;entryDx=0;entryDy=0;fontSize=13;" parent="1" source="UWleOFiBuXG3q4wPXzOo-65" target="UWleOFiBuXG3q4wPXzOo-66" edge="1">
          <mxGeometry width="50" height="50" relative="1" as="geometry">
            <mxPoint x="330" y="630" as="sourcePoint" />
            <mxPoint x="650" y="630" as="targetPoint" />
          </mxGeometry>
        </mxCell>
        <mxCell id="UWleOFiBuXG3q4wPXzOo-68" value="安全更改" style="edgeLabel;html=1;align=center;verticalAlign=middle;resizable=0;points=[];fontSize=13;" parent="UWleOFiBuXG3q4wPXzOo-67" vertex="1" connectable="0">
          <mxGeometry x="0.0438" y="4" relative="1" as="geometry">
            <mxPoint as="offset" />
          </mxGeometry>
        </mxCell>
        <mxCell id="UWleOFiBuXG3q4wPXzOo-69" value="运行时借用系统" style="text;html=1;strokeColor=none;fillColor=none;align=center;verticalAlign=middle;whiteSpace=wrap;rounded=0;fontSize=13;" parent="1" vertex="1">
          <mxGeometry x="50" y="730" width="140" height="30" as="geometry" />
        </mxCell>
        <mxCell id="UWleOFiBuXG3q4wPXzOo-70" value="" style="shape=curlyBracket;whiteSpace=wrap;html=1;rounded=1;labelPosition=left;verticalLabelPosition=middle;align=right;verticalAlign=middle;fontSize=13;" parent="1" vertex="1">
          <mxGeometry x="180" y="740" width="20" height="171" as="geometry" />
        </mxCell>
        <mxCell id="UWleOFiBuXG3q4wPXzOo-71" value="" style="endArrow=none;dashed=1;html=1;dashPattern=1 3;strokeWidth=2;rounded=0;exitX=1;exitY=0.5;exitDx=0;exitDy=0;entryX=0;entryY=0.5;entryDx=0;entryDy=0;fontSize=13;" parent="1" source="UWleOFiBuXG3q4wPXzOo-28" target="UWleOFiBuXG3q4wPXzOo-62" edge="1">
          <mxGeometry width="50" height="50" relative="1" as="geometry">
            <mxPoint x="370" y="610" as="sourcePoint" />
            <mxPoint x="420" y="560" as="targetPoint" />
          </mxGeometry>
        </mxCell>
        <mxCell id="8iu2tDSOwF6XlfRmBYGX-12" value="创建" style="edgeLabel;html=1;align=center;verticalAlign=middle;resizable=0;points=[];fontSize=13;" vertex="1" connectable="0" parent="UWleOFiBuXG3q4wPXzOo-71">
          <mxGeometry x="0.5776" y="2" relative="1" as="geometry">
            <mxPoint x="-27" y="26" as="offset" />
          </mxGeometry>
        </mxCell>
        <mxCell id="UWleOFiBuXG3q4wPXzOo-72" value="" style="endArrow=none;dashed=1;html=1;dashPattern=1 3;strokeWidth=2;rounded=0;exitX=1;exitY=0.5;exitDx=0;exitDy=0;entryX=0;entryY=0.5;entryDx=0;entryDy=0;fontSize=13;" parent="1" source="UWleOFiBuXG3q4wPXzOo-28" target="UWleOFiBuXG3q4wPXzOo-63" edge="1">
          <mxGeometry width="50" height="50" relative="1" as="geometry">
            <mxPoint x="370" y="610" as="sourcePoint" />
            <mxPoint x="420" y="560" as="targetPoint" />
          </mxGeometry>
        </mxCell>
        <mxCell id="UWleOFiBuXG3q4wPXzOo-73" value="" style="endArrow=none;dashed=1;html=1;dashPattern=1 3;strokeWidth=2;rounded=0;exitX=1;exitY=0.5;exitDx=0;exitDy=0;entryX=0;entryY=0;entryDx=0;entryDy=0;fontSize=13;" parent="1" source="UWleOFiBuXG3q4wPXzOo-28" target="UWleOFiBuXG3q4wPXzOo-54" edge="1">
          <mxGeometry width="50" height="50" relative="1" as="geometry">
            <mxPoint x="370" y="610" as="sourcePoint" />
            <mxPoint x="420" y="560" as="targetPoint" />
          </mxGeometry>
        </mxCell>
        <mxCell id="UWleOFiBuXG3q4wPXzOo-76" value="指针与引用" style="edgeLabel;html=1;align=center;verticalAlign=middle;resizable=0;points=[];fontSize=13;" parent="UWleOFiBuXG3q4wPXzOo-73" vertex="1" connectable="0">
          <mxGeometry x="0.09" y="1" relative="1" as="geometry">
            <mxPoint as="offset" />
          </mxGeometry>
        </mxCell>
        <mxCell id="UWleOFiBuXG3q4wPXzOo-74" value="" style="endArrow=none;dashed=1;html=1;dashPattern=1 3;strokeWidth=2;rounded=0;exitX=1;exitY=0.5;exitDx=0;exitDy=0;entryX=0.1;entryY=0.5;entryDx=0;entryDy=0;entryPerimeter=0;fontSize=13;" parent="1" source="UWleOFiBuXG3q4wPXzOo-28" target="UWleOFiBuXG3q4wPXzOo-70" edge="1">
          <mxGeometry width="50" height="50" relative="1" as="geometry">
            <mxPoint x="370" y="610" as="sourcePoint" />
            <mxPoint x="420" y="560" as="targetPoint" />
          </mxGeometry>
        </mxCell>
        <mxCell id="UWleOFiBuXG3q4wPXzOo-84" value="OnceCell&amp;lt;T&amp;gt;" style="rounded=0;whiteSpace=wrap;html=1;fillColor=#f5f5f5;fontColor=#333333;strokeColor=#666666;fontSize=13;" parent="1" vertex="1">
          <mxGeometry x="-20" y="200" width="120" height="60" as="geometry" />
        </mxCell>
        <mxCell id="UWleOFiBuXG3q4wPXzOo-86" value="Rust内部可变性体系&lt;span style=&quot;font-weight: normal; font-size: 15px;&quot;&gt;&lt;br style=&quot;font-size: 15px;&quot;&gt;&lt;/span&gt;" style="text;html=1;align=left;verticalAlign=middle;resizable=0;points=[];autosize=1;strokeColor=none;fillColor=none;fontSize=15;fontStyle=1" parent="1" vertex="1">
          <mxGeometry x="296" y="31" width="156" height="30" as="geometry" />
        </mxCell>
        <mxCell id="UWleOFiBuXG3q4wPXzOo-89" value="" style="endArrow=classic;html=1;rounded=0;exitX=0.5;exitY=0;exitDx=0;exitDy=0;entryX=0.5;entryY=1;entryDx=0;entryDy=0;fontSize=13;" parent="1" source="UWleOFiBuXG3q4wPXzOo-1" target="UWleOFiBuXG3q4wPXzOo-24" edge="1">
          <mxGeometry width="50" height="50" relative="1" as="geometry">
            <mxPoint x="350" y="680" as="sourcePoint" />
            <mxPoint x="400" y="630" as="targetPoint" />
          </mxGeometry>
        </mxCell>
        <mxCell id="UWleOFiBuXG3q4wPXzOo-91" value="丐版包装" style="edgeLabel;html=1;align=center;verticalAlign=middle;resizable=0;points=[];fontSize=13;" parent="UWleOFiBuXG3q4wPXzOo-89" vertex="1" connectable="0">
          <mxGeometry x="-0.0333" y="1" relative="1" as="geometry">
            <mxPoint as="offset" />
          </mxGeometry>
        </mxCell>
        <mxCell id="UWleOFiBuXG3q4wPXzOo-90" value="高端包装" style="endArrow=classic;html=1;rounded=0;exitX=0.5;exitY=1;exitDx=0;exitDy=0;fontSize=13;" parent="1" source="UWleOFiBuXG3q4wPXzOo-1" target="UWleOFiBuXG3q4wPXzOo-28" edge="1">
          <mxGeometry x="0.0058" width="50" height="50" relative="1" as="geometry">
            <mxPoint x="350" y="680" as="sourcePoint" />
            <mxPoint x="400" y="630" as="targetPoint" />
            <mxPoint as="offset" />
          </mxGeometry>
        </mxCell>
        <mxCell id="UWleOFiBuXG3q4wPXzOo-106" value="Cell&amp;lt;T&amp;gt;的非初始化版本...只能初始化一次.....每次操作都会判断是否已初始化" style="rounded=0;whiteSpace=wrap;html=1;fontSize=13;" parent="1" vertex="1">
          <mxGeometry x="200" y="150" width="560" height="35" as="geometry" />
        </mxCell>
        <mxCell id="UWleOFiBuXG3q4wPXzOo-107" value="" style="endArrow=none;dashed=1;html=1;dashPattern=1 3;strokeWidth=2;rounded=0;entryX=1;entryY=0.5;entryDx=0;entryDy=0;exitX=0;exitY=0.5;exitDx=0;exitDy=0;fontSize=13;" parent="1" source="UWleOFiBuXG3q4wPXzOo-106" target="UWleOFiBuXG3q4wPXzOo-84" edge="1">
          <mxGeometry width="50" height="50" relative="1" as="geometry">
            <mxPoint x="350" y="580" as="sourcePoint" />
            <mxPoint x="400" y="530" as="targetPoint" />
          </mxGeometry>
        </mxCell>
        <mxCell id="8iu2tDSOwF6XlfRmBYGX-3" value="&lt;b style=&quot;font-size: 13px;&quot;&gt;-&amp;nbsp;使用场景:&lt;/b&gt;&amp;nbsp;通过共享引用更新数据...例子 1.逻辑只读方法内部可变 2.多所有权内部可变 3.Clone时传入&amp;amp;self且要更新内部计数" style="text;html=1;strokeColor=none;fillColor=none;align=left;verticalAlign=middle;whiteSpace=wrap;rounded=0;fontSize=13;" vertex="1" parent="1">
          <mxGeometry x="-23" y="95" width="777" height="30" as="geometry" />
        </mxCell>
        <mxCell id="8iu2tDSOwF6XlfRmBYGX-4" value="&lt;b style=&quot;font-size: 13px;&quot;&gt;- 线程安全:&lt;/b&gt;&amp;nbsp;!Sync / Send 只能移动不能线程共享...多线程版本:&amp;nbsp;&lt;font style=&quot;border-color: var(--border-color); font-size: 13px; font-weight: 700;&quot; color=&quot;#ff3333&quot;&gt;Once&amp;lt;T&amp;gt;, OnceLock&amp;lt;T&amp;gt;, RwLock&amp;lt;T&amp;gt;&lt;/font&gt;" style="text;html=1;strokeColor=none;fillColor=none;align=left;verticalAlign=middle;whiteSpace=wrap;rounded=0;fontSize=13;" vertex="1" parent="1">
          <mxGeometry x="-23" y="118" width="777" height="30" as="geometry" />
        </mxCell>
        <mxCell id="8iu2tDSOwF6XlfRmBYGX-5" value="&lt;b style=&quot;font-size: 13px;&quot;&gt;-&amp;nbsp;可变实现: &lt;/b&gt;1.提供修改函数 2.获取可变引用或指针 3.通过运行时借用" style="text;html=1;strokeColor=none;fillColor=none;align=left;verticalAlign=middle;whiteSpace=wrap;rounded=0;fontSize=13;" vertex="1" parent="1">
          <mxGeometry x="-23" y="72" width="777" height="30" as="geometry" />
        </mxCell>
        <mxCell id="8iu2tDSOwF6XlfRmBYGX-6" value="运行时借用 &lt;br style=&quot;font-size: 13px;&quot;&gt;Ref&amp;lt;T&amp;gt;" style="rounded=0;whiteSpace=wrap;html=1;fontSize=13;" vertex="1" parent="1">
          <mxGeometry x="200" y="828" width="120" height="42" as="geometry" />
        </mxCell>
        <mxCell id="8iu2tDSOwF6XlfRmBYGX-7" value="运行时可变借用RefMut&amp;lt;T&amp;gt;" style="rounded=0;whiteSpace=wrap;html=1;fontSize=13;" vertex="1" parent="1">
          <mxGeometry x="200" y="870" width="120" height="42" as="geometry" />
        </mxCell>
        <mxCell id="8iu2tDSOwF6XlfRmBYGX-9" value="辅助方法: clone, map, map_split, filter_map, &lt;font color=&quot;#ff8000&quot; style=&quot;font-size: 13px;&quot;&gt;leak&lt;/font&gt;" style="text;html=1;align=center;verticalAlign=middle;resizable=0;points=[];autosize=1;strokeColor=none;fillColor=none;fontSize=13;" vertex="1" parent="1">
          <mxGeometry x="316" y="857" width="299" height="27" as="geometry" />
        </mxCell>
        <mxCell id="8iu2tDSOwF6XlfRmBYGX-10" value="&lt;span style=&quot;color: rgb(0, 0, 0); font-family: Helvetica; font-size: 13px; font-style: normal; font-variant-ligatures: normal; font-variant-caps: normal; font-weight: 400; letter-spacing: normal; orphans: 2; text-align: center; text-indent: 0px; text-transform: none; widows: 2; word-spacing: 0px; -webkit-text-stroke-width: 0px; background-color: rgb(255, 255, 255); text-decoration-thickness: initial; text-decoration-style: initial; text-decoration-color: initial; float: none; display: inline !important;&quot;&gt;辅助方法: try_borrow, try_borrow_mut,&amp;nbsp; try_borrow_upgrade, &lt;/span&gt;&lt;span style=&quot;font-family: Helvetica; font-size: 13px; font-style: normal; font-variant-ligatures: normal; font-variant-caps: normal; font-weight: 400; letter-spacing: normal; orphans: 2; text-align: center; text-indent: 0px; text-transform: none; widows: 2; word-spacing: 0px; -webkit-text-stroke-width: 0px; background-color: rgb(255, 255, 255); text-decoration-thickness: initial; text-decoration-style: initial; text-decoration-color: initial; float: none; display: inline !important;&quot;&gt;&lt;font color=&quot;#ff8000&quot; style=&quot;font-size: 13px;&quot;&gt;undo_leak&lt;/font&gt;&lt;/span&gt;" style="text;whiteSpace=wrap;html=1;fontSize=13;" vertex="1" parent="1">
          <mxGeometry x="323" y="753" width="440" height="37" as="geometry" />
        </mxCell>
        <mxCell id="8iu2tDSOwF6XlfRmBYGX-11" value="" style="curved=1;endArrow=classic;html=1;rounded=0;entryX=0.936;entryY=0.378;entryDx=0;entryDy=0;entryPerimeter=0;strokeColor=#FFB366;dashed=1;fontSize=13;" edge="1" parent="1">
          <mxGeometry width="50" height="50" relative="1" as="geometry">
            <mxPoint x="594" y="875" as="sourcePoint" />
            <mxPoint x="734.8400000000001" y="772.9860000000001" as="targetPoint" />
            <Array as="points">
              <mxPoint x="757" y="894" />
              <mxPoint x="792" y="847" />
              <mxPoint x="781" y="781" />
            </Array>
          </mxGeometry>
        </mxCell>
        <mxCell id="8iu2tDSOwF6XlfRmBYGX-14" value="注意事项:&amp;nbsp;&lt;b style=&quot;font-size: 13px;&quot;&gt;遵守借用规则&lt;/b&gt;" style="text;html=1;align=center;verticalAlign=middle;resizable=0;points=[];autosize=1;strokeColor=none;fillColor=none;fontSize=13;" vertex="1" parent="1">
          <mxGeometry x="316" y="810" width="155" height="27" as="geometry" />
        </mxCell>
      </root>
    </mxGraphModel>
  </diagram>
</mxfile>
